<svg id="alignLeft"
	 xmlns="http://www.w3.org/2000/svg" 
	 version="1.1" 
	 baseProfile="tiny" 
	 width="512px" 
	 height="512px" 
	 viewBox="0 0 24 24" 
	 xml:space="preserve">
	 
	<g>
		<path d="M23,4.9H1c-0.221,0-0.4-0.18-0.4-0.4S0.779,4.1,1,4.1h22c0.221,0,0.4,0.18,0.4,0.4S23.221,4.9,23,4.9z"/>
		<path d="M14.959,9.9H1c-0.221,0-0.4-0.18-0.4-0.4S0.779,9.1,1,9.1h13.959c0.221,0,0.4,0.18,0.4,0.4S15.18,9.9,14.959,9.9z"/>
		<path d="M23,14.859H1c-0.221,0-0.4-0.18-0.4-0.4s0.179-0.4,0.4-0.4h22c0.221,0,0.4,0.18,0.4,0.4S23.221,14.859,23,14.859z"/>
		<path d="M12.958,19.9H1c-0.221,0-0.4-0.18-0.4-0.4s0.179-0.4,0.4-0.4h11.958c0.221,0,0.4,0.18,0.4,0.4S13.179,19.9,12.958,19.9z"/>
	</g>
</svg>
