<svg
   xmlns="http://www.w3.org/2000/svg"
   xmlns:xlink="http://www.w3.org/1999/xlink"
   width="100%"
   height="100%"
   viewBox="0 0 540.8 504"
   preserveAspectRatio="xMidYMid meet"
   version="1.1">

  <rect
     width="7.7037411"
     height="23.78112"
     x="266.28152"
     y="337.86713"
     style="fill:#333;"/>
    
  <g>
    <a xlink:title="First Page" xlink:href="{{ .Paginator.First.URL }}">
      <path transform="matrix(0.1,0,0,-0.1,0.11842105,504.11841)"
         d="m 1770,2133 c -151,-14 -278,-71 -398,-178 -58,-52 -159,-169 -267,-310 -146,-189 -253,-272 -380,-296 -154,-28 -417,36 -537,132 -20,16 -39,29 -42,29 -3,0 4,-24 15,-52 179,-458 646,-727 1269,-729 399,-2 770,137 1029,386 93,89 152,162 205,253 l 36,60 0,132 c 0,129 -1,132 -29,173 -99,142 -312,289 -506,350 -118,36 -297,59 -395,50 z"
         id="path3342" />

      <text
         xml:space="preserve"
         style="font-size:45px;line-height:125%;font-family:'Fontdiner Swanky'"
         x="-26.741175"
         y="421.4361"
         id="text3368"
         transform="matrix(0.96122904,-0.30,0.30,0.96122904,0,0)">
         <tspan
           id="tspan3370"
           x="-35"
           y="415">FIRST</tspan>
      </text>
    </a>
  </g>
  <g>
    <a xlink:title="Last Page" xlink:href="{{ .Paginator.Last.URL }}#moustage">
      <path transform="matrix(-0.1,0,0,-0.1,539.90695,504.03403)"
         d="m 1770,2133 c -151,-14 -278,-71 -398,-178 -58,-52 -159,-169 -267,-310 -146,-189 -253,-272 -380,-296 -154,-28 -417,36 -537,132 -20,16 -39,29 -42,29 -3,0 4,-24 15,-52 179,-458 646,-727 1269,-729 399,-2 770,137 1029,386 93,89 152,162 205,253 l 36,60 0,132 c 0,129 -1,132 -29,173 -99,142 -312,289 -506,350 -118,36 -297,59 -395,50 z"
         id="path3342-4" />

      <text
         xml:space="preserve"
         style="font-size:45px;line-height:125%;font-family:'Fontdiner Swanky'"
         x="371.16266"
         y="285.30713"
         id="text3368-1"
         transform="matrix(0.96742281,0.28,-0.28,0.96742281,0,0)"><tspan
           id="tspan3370-9"
           x="390"
           y="265">LAST</tspan>
    </text>
    </a>
  </g>

  <a xlink:title="Next Page"
    xlink:href="{{ if .Paginator.HasNext }}{{ .Paginator.Next.URL }}#scroll-down
    {{ else }}javascript:void(0);{{ end }}">
    <g transform="matrix(0.94832872,0,0,0.94832872,-14.890385,-713.8633)">
      <path transform="matrix(-0.10710526,0,0,-0.10710526,523.94437,987.8728)"
       d="M 796,1359 C 634,1335 497,1278 420,1201 361,1142 344,1111 319,1013 239,699 413,295 683,166 795,113 891,95 1060,95 c 120,1 159,4 225,23 109,31 208,81 280,141 183,151 318,456 302,682 -16,235 -202,375 -557,418 -99,13 -429,12 -514,0 z"
       {{if not .Paginator.HasNext}} fill="#4CABAB" style="cursor: not-allowed;" {{end}}
       id="path3475-3" />

      <rect
       y="845.29578"
       x="482.20163"
       height="17.142857"
       width="31.607143"
       {{if not .Paginator.HasNext}} fill="#4CABAB" style="cursor: not-allowed;" {{end}}
       id="rect3501-4" />
    </g>

    <text
       xml:space="preserve"
       style="font-size:40px;line-height:125%;font-family:'Fontdiner Swanky'"
       x="333.64105"
       y="56.871277">
       <tspan
         {{if not .Paginator.HasNext}} fill="#008080" style="cursor: not-allowed;" {{end}}
         x="312"
         y="156">NEXT</tspan>
    </text>
  </a>

  <a xlink:title="Previous Page"
    xlink:href="{{ if .Paginator.HasPrev }}{{ .Paginator.Prev.URL }}#scroll-down
    {{ else }}javascript:void(0);{{ end }}">
    <g transform="matrix(0.94832872,0,0,0.94832872,-14.890385,-713.8633)">
      <path transform="matrix(0.10710526,0,0,-0.10710526,64.290535,984.87746)"
       d="M 796,1359 C 634,1335 497,1278 420,1201 361,1142 344,1111 319,1013 239,699 413,295 683,166 795,113 891,95 1060,95 c 120,1 159,4 225,23 109,31 208,81 280,141 183,151 318,456 302,682 -16,235 -202,375 -557,418 -99,13 -429,12 -514,0 z" 
       {{if not .Paginator.HasPrev}} fill="#4CABAB" style="cursor: not-allowed;" {{end}} />

      <rect
       y="846.29071"
       x="76.071426"
       height="17.142857"
       width="31.607143"
       {{if not .Paginator.HasPrev}} fill="#4CABAB" style="cursor: not-allowed;" {{end}}
       id="rect3501" />
    </g>

    <text
       xml:space="preserve"
       style="font-size:41px;line-height:125%;font-family:'Fontdiner Swanky'"
       x="47.587101"
       y="198.2056">
       <tspan
         {{if not .Paginator.HasPrev}} fill="#008080" style="cursor: not-allowed;" {{end}}
         x="92"
         y="155">PREV</tspan>
    </text>
  </a>

  <path transform="matrix(0.94832872,0,0,0.94832872,-14.890385,-713.8633)"
     d="m 91.719834,850.57413 c 6.25033,-0.31777 11.323486,0.99071 11.323486,2.92538 0,1.93468 -5.073156,3.76655 -11.323486,4.08432 -6.252167,0.31778 -11.323004,-0.9907 -11.323004,-2.93005 0,-1.93468 5.070837,-3.76187 11.323004,-4.07965 l 0,0 z m 406.514036,0 c -6.24798,-0.31777 -11.31833,0.99071 -11.31833,2.92538 0,1.93468 5.07035,3.76655 11.31833,4.08432 6.25265,0.31778 11.32768,-0.9907 11.32768,-2.93005 0,-1.93468 -5.07503,-3.76187 -11.32768,-4.07965 l 0,0 z m -50.06796,-3.4441 c 15.99147,3.53756 31.46421,11.21552 37.12805,27.20232 7.76675,21.917 2.22909,45.88083 -7.88825,63.86772 -13.93061,24.77228 -33.91293,32.91755 -61.44236,33.85218 -28.73978,0.98136 -64.62944,-9.53319 -80.54614,-58.3581 -11.3744,-34.87559 2.8366,-52.10076 21.15528,-60.55914 22.55254,-10.42109 67.43332,-11.35104 91.59342,-6.00498 l 0,0 z m -306.37577,0 c -15.99475,3.53756 -31.46514,11.21552 -37.13134,27.20232 -7.763936,21.917 -2.22534,45.88083 7.89293,63.86772 13.93016,24.77228 33.90968,32.91755 61.44284,33.85218 28.73604,0.98136 64.62615,-9.53319 80.54472,-58.3581 11.3744,-34.87559 -2.84127,-52.10076 -21.15386,-60.55914 -22.55161,-10.42109 -67.43568,-11.35104 -91.59529,-6.00498 l 0,0 z m -70.557325,-4.60771 1.615521,25.88449 c 0,0 10.783238,-3.77589 16.175588,30.18845 5.39231,33.96901 10.24582,81.41066 88.420806,82.49016 78.17405,1.07482 94.34777,-70.08766 98.66107,-80.33585 4.31797,-10.23883 5.3928,-17.78594 10.24818,-19.94493 6.15919,-2.73846 11.08935,-2.73846 17.24854,0 4.85538,2.15899 5.9302,9.7061 10.24351,19.94493 4.31797,10.24819 20.49169,81.41067 98.66855,80.33585 78.17218,-1.0795 83.02756,-48.52115 88.41569,-82.49016 5.39279,-33.96434 16.17371,-30.18845 16.17371,-30.18845 l 1.62158,-25.88449 c -57.68984,-13.47264 -131.01598,-12.93523 -167.67671,-1.61223 -13.74836,4.24321 -25.07137,7.27607 -33.85219,9.40702 -19.87951,4.83202 -24.55731,4.83202 -44.43683,0 -8.78081,-2.13095 -20.10382,-5.16381 -33.85449,-9.40702 -36.66029,-11.323 -109.98456,-11.86041 -167.672525,1.61223 l 0,0"
     style="fill:#333;fill-rule:evenodd"
     id="path38" />
</svg>
