<svg version="1.1" 
  xmlns="http://www.w3.org/2000/svg" 
  xmlns:xlink="http://www.w3.org/1999/xlink" 
  height="100%" 
  width="100%" 
  viewBox="0 0 380 1800" 
  preserveAspectRatio="xMidYMid meet">
  
  <defs>
    <filter id="e" color-interpolation-filters="sRGB">
      <feFlood result="flood" flood-opacity=".49" flood-color="#000"/>
      <feComposite operator="out" result="composite1" in2="SourceGraphic" in="flood"/>
      <feGaussianBlur stdDeviation="4" result="blur" in="composite1"/>
      <feOffset result="offset" dx="4" dy="4"/>
      <feComposite operator="atop" result="composite2" in2="SourceGraphic" in="offset"/>
    </filter>
    <filter id="b" color-interpolation-filters="sRGB">
      <feFlood result="flood" flood-opacity=".49" flood-color="#000"/>
      <feComposite operator="out" result="composite1" in2="SourceGraphic" in="flood"/>
      <feGaussianBlur stdDeviation="3" result="blur" in="composite1"/>
      <feOffset result="offset" dx="2" dy="3"/>
      <feComposite operator="atop" result="composite2" in2="SourceGraphic" in="offset"/>
    </filter>
    <filter id="f" color-interpolation-filters="sRGB">
      <feFlood result="flood" flood-opacity=".49" flood-color="#000"/>
      <feComposite operator="out" result="composite1" in2="SourceGraphic" in="flood"/>
      <feGaussianBlur stdDeviation="2" result="blur" in="composite1"/>
      <feOffset result="offset" dx="2" dy="1"/>
      <feComposite operator="atop" result="composite2" in2="SourceGraphic" in="offset"/>
    </filter>
    <filter id="d" color-interpolation-filters="sRGB">
      <feFlood result="flood" flood-opacity=".49" flood-color="#000"/>
      <feComposite operator="out" result="composite1" in2="SourceGraphic" in="flood"/>
      <feGaussianBlur stdDeviation="10" result="blur" in="composite1"/>
      <feOffset result="offset" dx="10" dy="10"/>
      <feComposite operator="atop" result="composite2" in2="SourceGraphic" in="offset"/>
    </filter>
    <filter id="c" color-interpolation-filters="sRGB">
      <feFlood result="flood" flood-opacity=".49" flood-color="#000"/>
      <feComposite operator="out" result="composite1" in2="SourceGraphic" in="flood"/>
      <feGaussianBlur stdDeviation="10" result="blur" in="composite1"/>
      <feOffset result="offset" dx="10" dy="10"/>
      <feComposite operator="atop" result="composite2" in2="SourceGraphic" in="offset"/>
    </filter>
    <filter id="a" color-interpolation-filters="sRGB">
      <feFlood result="flood" flood-opacity=".49" flood-color="#000"/>
      <feComposite operator="in" result="composite1" in2="SourceGraphic" in="flood"/>
      <feGaussianBlur stdDeviation="10" result="blur" in="composite1"/>
      <feOffset result="offset" dx="5" dy="5"/>
      <feComposite operator="over" result="composite2" in2="offset" in="SourceGraphic"/>
    </filter>
  </defs>
  <path d="M344.02 58.9c-37.5 39.26-62.5 60.63-120 102.88-47.12 34.5-58.25 43.5-72 57.75-20.75 21.63-32 43-36.75 70.25-2.75 15.38-2.75 1132.5-.12 1145.13 5 23.26 21.25 46.38 42.62 60.63 12.75 8.38 30.88 17.38 32.63 16.13 1.62-1.13 9.25-11 51.5-66.38l18.37-24 51.63-.12h51.5v-38.5c0-21.13.12-331.63.37-690 .13-490.5-.12-651.5-1.25-651.5-.75 0-9 8-18.5 17.75z" stroke="none" stroke-width=".125"/>
  <g transform="translate(0 747.64)">

    <path d="M6535 3058c-303-383-334-418-467-529-258-217-387-375-469-576-67-163-83-245-82-418 0-181 25-290 98-435 59-119 94-169 174-254 88-91 160-146 267-201 171-88 330-122 518-112 374 21 694 238 856 580 83 174 85 200 75 1330l-7 867h-763l-200-252z" filter="url(#a)" transform="matrix(.125 0 0 -.125 -574.46 1102.5)"/>

    <a class="side-nav" xlink:title="Home" xlink:href="{{ .Site.BaseURL }}{{ .Site.Params.button_1 }}">
      <circle cx="240" cy="-270" r="90" fill="transparent" />
      <path d="M540.76 254.8L294.5 38.2c-11.47-10.1-30.05-10.1-41.38 0L6.94 254.8c-11.47 10.1-8.4 18.27 6.9 18.27h75.95v221.77c0 12.1 9.94 22.1 22.1 22.1h92.95V371.07c0-12.08 9.94-22.1 22.1-22.1h93.87c12.24 0  22.1 9.8 22.1 22.1v145.9h92.96c12.24 0 22.1-9.95 22.1-22.12V273h75.97c15.07 0 18.13-8.1 6.8-18.2z" transform="matrix(.213 0 0 .247 183.656 -339.75)" filter="url(#e)"/>
    </a>

    <a class="side-nav" xlink:title="Playground" xlink:href="{{ .Site.BaseURL }}{{ .Site.Params.button_2 }}">
      <circle cx="240" cy="0" r="90" fill="transparent" />
      <path d="M211.88 124.5V91c0-50.18-40.82-91-91-91s-91 40.82-91 91v33.5c-4 .14-8 3.78-8 8.25v.5c0 4.55 4.03 8.5 8.58 8.5H43.8l10.28 90.06c.62 5.48 5.63 9.95 11.13 9.95h112c5.5 0 10.5-4.48 11.08-9.94l9.67-90.05h14c4.57 0 7.93-3.95 7.93-8.5v-.5c0-4.48-3-8.1-8-8.24zm-91-107.5c40.8 0 74 33.2 74 74v1.75h-148V91c0-40.8 33.2-74 74-74z" transform="matrix(.492 0 0 .496 179.077 -67.192)" filter="url(#b)"/>
    </a>

    <a class="side-nav" xlink:title="About this page" xlink:href="{{ .Site.BaseURL }}{{ .Site.Params.button_3 }}">
      <circle cx="240" cy="270" r="90" fill="transparent" />
      <path d="M62.16 0c6.7 0 10.05 4.57 10.05 9.8 0 6.5-5.8 12.54-13.4 12.54-6.33 0-10.03-3.75-9.85-9.94 0-5.22 4.4-12.4 13.2-12.4zM41.54 100c-5.28 0-9.16-3.26-5.46-17.6l6.07-25.47c1.06-4.08 1.23-5.7 0-5.7-1.6 0-8.45 2.8-12.5 5.58L27 52.4C39.86 41.5 54.66 35.08 61 35.08c5.3 0 6.17 6.36 3.53 16.15l-6.95 26.76c-1.23 4.73-.7 6.36.53 6.36 1.6 0 6.8-1.96 11.9-6.04l3 4.08C60.5 95.1 46.83 100 41.54 100z" transform="matrix(1.087 0 0 1.2 178.888 205.7)" filter="url(#f)"/>
    </a>

    <a class="side-nav" xlink:title="Previous Article" xlink:href="{{if .PrevInSection}}{{.PrevInSection.Permalink}}{{else}}javascript:void(0);{{end}}">
      <circle cx="185" cy="550" r="40" fill="transparent" />
      <path d="M1149 1784c-233-240-425-440-427-444-1-4 55-62 125-130s269-261 442-429l314-306 137 143 137 143-191 187c-105 103-240 234-299 292l-108 105 291 300 290 299-137 138c-76 76-140 138-143 138s-197-196-431-436z" transform="matrix(.056 0 0 -.057 112.114 626.942)" filter="url(#c)"
      {{if (not .PrevInSection) }} fill="#4CABAB" style="cursor: not-allowed;" {{end}}/>
    </a>
    
    <a class="side-nav" xlink:title="Next Article" xlink:href="{{if .NextInSection}}{{.NextInSection.Permalink}}{{else}}javascript:void(0);{{end}}">
      <circle cx="280" cy="550" r="40" fill="transparent" />
      <path d="M1149 1784c-233-240-425-440-427-444-1-4 55-62 125-130s269-261 442-429l314-306 137 143 137 143-191 187c-105 103-240 234-299 292l-108 105 291 300 290 299-137 138c-76 76-140 138-143 138s-197-196-431-436z" transform="matrix(-.056 0 0 -.057 358.62 626.815)" filter="url(#d)"
      {{if (not .NextInSection) }} fill="#4CABAB" style="cursor: not-allowed;" {{end}}/>
    </a>    

    <image y="797.66" x="123.81" xlink:href="{{ .Site.BaseURL }}{{ .Site.Params.logo }}" preserveAspectRatio="xMidYMid meet" height="230.68" width="230.68" image-rendering="optimizeQuality"/>
  </g>
</svg>
