<svg xmlns="http://www.w3.org/2000/svg" version="1.1" viewBox="0 0 219 219"
   height="219"
   width="219">
  <g
     transform="translate(0,-833.36216)"
     id="layer1">
    <g
       id="g77"
       transform="matrix(-1,0,0,1,1203.8373,744.64675)">
      <g
         id="g79"
         transform="matrix(0.125,0.002,0.002,-0.125,921.23,363.38)"
         style="fill:#008080">
        <path
           id="path81"
           d="M 1149,1784 C 916,1544 724,1344 722,1340 c -1,-4 55,-62 125,-130 l 442,-429 314,-306 137,143 137,143 -191,187 c -105,103 -240,234 -299,292 l -108,105 291,300 290,299 -137,138 c -76,76 -140,138 -143,138 -3,0 -197,-196 -431,-436 z" />
      </g>
    </g>
  </g>
</svg>
