<svg version="1.1" xmlns:svg="http://www.w3.org/2000/svg" xmlns:xlink="http://www.w3.org/1999/xlink" preserveAspectRatio="xMidYMid meet" viewBox="0 0 540.8 270.4" preserveAspectRatio="xMidYMid meet"
   height="auto"
   width="100%">

  <rect
     y="104.26712"
     x="266.28152"
     height="23.78112"
     width="7.7037411"/>
  <g>
    <a xlink:title="Previous Page" xlink:href="/page1?/">
      <path transform="matrix(0.1,0,0,-0.1,0.11842105,270.51842)"
         d="m 1770,2133 c -151,-14 -278,-71 -398,-178 -58,-52 -159,-169 -267,-310 -146,-189 -253,-272 -380,-296 -154,-28 -417,36 -537,132 -20,16 -39,29 -42,29 -3,0 4,-24 15,-52 179,-458 646,-727 1269,-729 399,-2 770,137 1029,386 93,89 152,162 205,253 l 36,60 0,132 c 0,129 -1,132 -29,173 -99,142 -312,289 -506,350 -118,36 -297,59 -395,50 z" />
    
      <text
       transform="matrix(0.96122904,-0.27575121,0.27575121,0.96122904,0,0)"
       id="text3368"
       y="196.89297"
       x="37.674305">
       <tspan
         y="196.89297"
         x="37.674305"
         id="tspan3370">PREV</tspan>
      </text>
    </a>
  </g>

  <g>
    <a xlink:title="Next Page" xlink:href="/page2?/">
      <path transform="matrix(-0.1,0,0,-0.1,539.90695,270.43404)"
         d="m 1770,2133 c -151,-14 -278,-71 -398,-178 -58,-52 -159,-169 -267,-310 -146,-189 -253,-272 -380,-296 -154,-28 -417,36 -537,132 -20,16 -39,29 -42,29 -3,0 4,-24 15,-52 179,-458 646,-727 1269,-729 399,-2 770,137 1029,386 93,89 152,162 205,253 l 36,60 0,132 c 0,129 -1,132 -29,173 -99,142 -312,289 -506,350 -118,36 -297,59 -395,50 z" />

      <text
       transform="matrix(0.96742281,0.25316616,-0.25316616,0.96742281,0,0)"
       id="text3368-1"
       y="59.317158"
       x="312.02304">
       <tspan
         y="59.317158"
         x="312.02304"
         id="tspan3370-9">NEXT</tspan>
      </text>
  </a>
  </g>
</svg>
