<?xml version="1.0" encoding="utf-8"?>
<!-- Generator: Adobe Illustrator 16.0.0, SVG Export Plug-In . SVG Version: 6.00 Build 0)  -->
<!DOCTYPE svg PUBLIC "-//W3C//DTD SVG 1.1 Tiny//EN" "http://www.w3.org/Graphics/SVG/1.1/DTD/svg11-tiny.dtd">
<svg xmlns="http://www.w3.org/2000/svg" xmlns:xlink="http://www.w3.org/1999/xlink" version="1.1" baseProfile="tiny" id="Layer_1" x="0px" y="0px" width="512px" height="512px" viewBox="0 0 24 24" xml:space="preserve">
<g>
	<path d="M1,4.9h22c0.221,0,0.4-0.18,0.4-0.4S23.221,4.1,23,4.1H1c-0.221,0-0.4,0.18-0.4,0.4S0.779,4.9,1,4.9z" fill="#808080"/>
	<path d="M23,9.1H1c-0.221,0-0.4,0.18-0.4,0.4S0.779,9.9,1,9.9h22c0.221,0,0.4-0.18,0.4-0.4S23.221,9.1,23,9.1z" fill="#808080"/>
	<path d="M23,14.059H1c-0.221,0-0.4,0.18-0.4,0.4s0.179,0.4,0.4,0.4h22c0.221,0,0.4-0.18,0.4-0.4S23.221,14.059,23,14.059z" fill="#808080"/>
	<path d="M23,19.1H1c-0.221,0-0.4,0.18-0.4,0.4s0.179,0.4,0.4,0.4h22c0.221,0,0.4-0.18,0.4-0.4S23.221,19.1,23,19.1z" fill="#808080"/>
</g>
</svg>
